<svg version="1.2" xmlns="http://www.w3.org/2000/svg" viewBox="0 0 566 816" width="566" height="816">
    <style>
        .s0 { fill: #231f20 }
        .s1 { fill: none;stroke: #231f20;stroke-linecap: round;stroke-width: 7.5 }
        .s2 { fill: none;stroke: #231f20;stroke-width: 7.5 }
        .s3 { mix-blend-mode: multiply;fill: #b9cce9 }
        .s4 { mix-blend-mode: multiply;fill: #7ca6d8 }
        .s5 { mix-blend-mode: multiply;fill: #fff699 }
        .s6 { mix-blend-mode: multiply;fill: #fff34e }
    </style>
    <g id="Ebene 1">
        <path id="&lt;Compound Path&gt;" class="s0"
              d="m120.48 459.2l8.75-4.18q1.23 4.56 4.54 6.91c2.19 1.56 5.01 2.36 8.43 2.31q4.86-0.03 7.72-2.78 2.86-2.75 2.87-7.32-0.01-5.95-9.8-10.5-1.37-0.69-2.11-1-11.13-5.34-14.82-9.69-3.71-4.36-3.71-10.7 0-8.24 5.59-13.41 5.58-5.13 14.65-5.23 7.45-0.07 12.46 2.78 5.01 2.83 6.94 8.2l-8.6 4.52q-2.01-3.17-4.42-4.63-2.4-1.46-5.52-1.43-4.39 0.05-6.97 2.39-2.6 2.29-2.6 6.17 0 6.07 11.36 11.2 0.86 0.41 1.37 0.64 10 4.51 13.73 8.86 3.74 4.38 3.73 10.96 0 9.58-6.01 15.26-6.02 5.7-16.29 5.78-8.6 0.09-14.09-3.83-5.49-3.91-7.2-11.28z"/>
        <path id="&lt;Compound Path&gt;" class="s0"
              d="m230.19 420.71q-4.66-3.93-9.85-5.86-5.18-1.94-10.89-1.89-11.07 0.1-17.99 7.26-6.95 7.15-6.95 18.43 0 10.92 6.76 17.95 6.74 7.04 17.03 6.94c3.99-0.02 7.79-0.79 11.4-2.21q5.42-2.16 10.39-6.51v12.46q-4.42 3.19-9.63 4.79-5.2 1.59-11.28 1.65-7.74 0.07-14.31-2.4-6.56-2.5-11.55-7.36-4.92-4.78-7.57-11.33-2.65-6.54-2.65-13.96 0-7.41 2.65-13.96 2.65-6.52 7.67-11.5 5.02-5.01 11.52-7.63 6.5-2.6 14.05-2.67 5.94-0.07 11.33 1.64 5.4 1.69 10.47 5.16z"/>
        <path id="&lt;Compound Path&gt;" class="s0" d="m243.7 471.56v-67.37l10.93-0.1v24.8l33.25-0.29v-24.79l10.93-0.11v67.37l-10.93 0.1v-32.76l-33.25 0.3v32.76z"/>
        <path id="&lt;Compound Path&gt;" class="s0" d="m314.21 470.96v-67.4l10.93-0.09v57.58l24.54-0.23v9.81z"/>
        <path id="&lt;Compound Path&gt;" class="s0" d="m358.78 470.55v-67.38l10.92-0.08v67.36z"/>
        <path id="&lt;Compound Path&gt;" class="s0" d="m385.41 470.32v-67.4l37.56-0.31v9.31l-26.63 0.25v16.93l26.63-0.25v9.59l-26.63 0.25v21.72l26.63-0.25v9.82z"/>
        <path id="&lt;Compound Path&gt;" fill-rule="evenodd" class="s0"
              d="m445.9 439.59v30.18l-10.32 0.1v-67.38l15.33-0.14q6.7-0.06 10.39 0.78 3.69 0.85 6.3 2.84 3.13 2.4 4.83 6.26 1.69 3.84 1.69 8.44 0 8.09-3.89 12.7-3.87 4.61-11.45 5.6l23.08 30.49-12.41 0.1-22.33-29.97zm0.61-8.46l2.05-0.04q8.62-0.05 11.45-2.12 2.82-2.03 2.83-7.17c0-3.71-1.01-6.3-3.03-7.81q-3.05-2.24-11.25-2.16l-2.05 0.02z"/>
        <path id="&lt;Compound Path&gt;" class="s0" d="m488.38 469.4v-67.38l37.55-0.33v9.34l-26.63 0.22v16.93l26.63-0.21v9.56l-26.63 0.23v21.72l26.63-0.22v9.83z"/>
        <path id="&lt;Compound Path&gt;" class="s0" d="m184.99 585.22v-67.39l10.93-0.1v57.56l24.54-0.22v9.83z"/>
        <path id="&lt;Compound Path&gt;" fill-rule="evenodd" class="s0"
              d="m279.04 584.42l-7.64-17.37-26.66 0.25-7.81 17.49-11.53 0.11 32.62-70.38 32.55 69.79zm-30.25-26.24l18.76-0.16-6.9-15.32q-0.59-1.46-1.24-3.37-0.64-1.9-1.29-4.24-0.56 2.22-1.17 4.13-0.63 1.91-1.26 3.54z"/>
        <path id="&lt;Compound Path&gt;" class="s0"
              d="m345.88 532.79q-4.67-3.92-9.84-5.85-5.21-1.94-10.9-1.89-11.07 0.1-18 7.25-6.94 7.16-6.94 18.44 0 10.93 6.75 17.94 6.75 7.05 17.03 6.94 5.98-0.05 11.41-2.2 5.42-2.18 10.39-6.49v12.45q-4.42 3.16-9.63 4.77-5.2 1.61-11.29 1.66-7.73 0.06-14.31-2.4-6.56-2.49-11.54-7.37-4.93-4.8-7.57-11.33-2.66-6.52-2.65-13.96-0.01-7.4 2.65-13.95 2.65-6.53 7.66-11.5 5.02-5.01 11.52-7.64 6.5-2.59 14.05-2.68 5.95-0.04 11.34 1.65 5.39 1.7 10.46 5.16z"/>
        <path id="&lt;Compound Path&gt;" class="s0" d="m359.38 583.66v-67.38l10.94-0.1v24.8l33.25-0.3v-24.79l10.92-0.09v67.38l-10.92 0.09v-32.77l-33.25 0.29v32.77z"/>
        <path id="&lt;Compound Path&gt;" class="s0" d="m451.63 524.79v58.06l-10.93 0.09v-58.05l-17.92 0.15v-9.33l46.64-0.41v9.32z"/>
        <g id="&lt;Group&gt;">
            <path id="&lt;Path&gt;" class="s1" d="m422.83 244.93c0 63.69-51.62 115.32-115.31 115.32-63.69 0-115.31-51.63-115.31-115.32"/>
            <path id="&lt;Path&gt;" class="s1" d="m209 228.1c0 9.29-7.53 16.81-16.81 16.81-9.28 0-16.8-7.52-16.8-16.81"/>
            <path id="&lt;Path&gt;" class="s1" d="m439.48 228.1c0 9.29-7.53 16.81-16.8 16.81-9.29 0-16.81-7.52-16.81-16.81"/>
        </g>
        <path id="&lt;Path&gt;" class="s0" d="m264.87 150.05c0 11.43-8.42 20.7-18.82 20.7-10.39 0-18.81-9.27-18.81-20.7 0-11.43 8.42-20.69 18.81-20.69 10.4 0 18.82 9.26 18.82 20.69z"/>
        <path id="&lt;Path&gt;" class="s0" d="m362.15 150.05c0 12.57-8.43 22.77-18.82 22.77-10.39 0-18.82-10.2-18.82-22.77 0-12.57 8.43-22.76 18.82-22.76 10.39 0 18.82 10.19 18.82 22.76z"/>
        <path id="&lt;Path&gt;" class="s2" d="m299.27 114.73l-11.58 164.45 53.27-1.16"/>
        <path id="&lt;Path&gt;" class="s3"
              d="m530.52 394.5c0 56.81-46.06 102.88-102.87 102.88-56.81 0-102.87-46.07-102.87-102.88 0-56.81 46.06-102.86 102.87-102.86 56.81 0 102.87 46.05 102.87 102.86z"/>
        <path id="&lt;Path&gt;" class="s4" d="m170.1 531.94c0 15.56-12.61 28.18-28.18 28.18-15.56 0-28.18-12.62-28.18-28.18 0-15.56 12.62-28.19 28.18-28.19 15.57 0 28.18 12.63 28.18 28.19z"/>
        <path id="&lt;Path&gt;" class="s5" d="m252.06 437.71c0 23.94-19.41 43.35-43.36 43.35-23.95 0-43.36-19.41-43.36-43.35 0-23.95 19.41-43.36 43.36-43.36 23.95 0 43.36 19.41 43.36 43.36z"/>
        <path id="&lt;Path&gt;" class="s6" d="m15.82 122.85l315.19-106.41-103.98 316-105.61-104.8z"/>
        <path id="&lt;Path&gt;" class="s4" d="m389.24 269.11l-19.96 8.26-19.97 8.25 3.46-48.18z"/>
        <path id="&lt;Path&gt;" class="s6" d="m452.72 657.44l-70.89 31.25-70.88 31.26 8.37-173.03z"/>
        <path id="&lt;Compound Path&gt;" class="s0"
              d="m131.46 730.18c-5.28 0-9.3-1.23-12.72-5.03l4.4-4.82c2.2 2.41 5.19 3.21 8.42 3.21 4.02 0 6.17-1.66 6.17-4.7 0-1.34-0.34-2.46-1.08-3.21-0.68-0.7-1.47-1.07-3.08-1.34l-4.21-0.64c-2.99-0.48-5.19-1.5-6.76-3.15-1.66-1.82-2.49-4.28-2.49-7.49 0-6.79 4.6-11.55 12.14-11.55 4.79 0 8.27 1.28 11.26 4.44l-4.31 4.65c-2.2-2.3-4.85-2.62-7.15-2.62-3.62 0-5.39 2.19-5.39 4.81 0 0.97 0.3 1.98 1.03 2.73 0.69 0.69 1.81 1.28 3.23 1.5l4.12 0.64c3.18 0.48 5.19 1.44 6.66 2.94 1.86 1.92 2.69 4.71 2.69 8.07 0 7.38-5.63 11.56-12.93 11.56z"/>
        <path id="&lt;Compound Path&gt;" class="s0"
              d="m162.44 730.18c-3.82 0-6.95-1.51-9.4-4.18-3.52-3.85-3.42-8.61-3.42-15.19 0-6.57-0.1-11.33 3.42-15.18 2.45-2.68 5.58-4.17 9.4-4.17 6.51 0 11.6 4.06 12.83 12.03h-6.9c-0.69-3.05-2.45-5.4-5.88-5.4-1.86 0-3.38 0.75-4.36 1.98-1.32 1.6-1.71 3.42-1.71 10.74 0 7.33 0.39 9.15 1.71 10.75 0.98 1.23 2.5 1.98 4.36 1.98 3.43 0 5.19-2.35 5.88-5.4h6.9c-1.23 7.97-6.37 12.04-12.83 12.04z"/>
        <path id="&lt;Compound Path&gt;" class="s0" d="m199.74 729.85v-15.93h-11.8v15.93h-6.81v-38.07h6.81v15.56h11.8v-15.56h6.8v38.07z"/>
        <path id="&lt;Compound Path&gt;" class="s0" d="m214.66 729.85v-38.07h6.8v31.44h15.82v6.63z"/>
        <path id="&lt;Compound Path&gt;" class="s0" d="m242.8 729.85v-38.07h6.8v38.07z"/>
        <path id="&lt;Compound Path&gt;" class="s0" d="m257.73 729.85v-38.07h22.95v6.63h-16.15v8.93h13.75v6.63h-13.75v9.25h16.15v6.63z"/>
        <path id="&lt;Compound Path&gt;" fill-rule="evenodd" class="s0"
              d="m305.84 729.85l-6.81-15.18h-4.89v15.18h-6.81v-38.07h13.66c7.1 0 11.31 5.29 11.31 11.65 0 5.35-2.99 8.67-6.36 10.01l7.78 16.41zm-5.29-31.44h-6.41v10.05h6.41c2.99 0 4.95-2.08 4.95-5.03 0-2.93-1.96-5.02-4.95-5.02z"/>
        <path id="&lt;Compound Path&gt;" class="s0" d="m319.34 729.85v-38.07h22.96v6.63h-16.16v8.93h13.76v6.63h-13.76v9.25h16.16v6.63z"/>
        <path id="&lt;Compound Path&gt;" class="s0" d="m355.75 698.41v9.36h13.76v6.63h-13.76v15.45h-6.8v-38.07h22.96v6.63z"/>
        <path id="&lt;Compound Path&gt;" fill-rule="evenodd" class="s0"
              d="m396.76 729.85l-2.05-6.74h-12.39l-2.1 6.74h-7.1l12.68-38.07h5.33l12.73 38.07zm-16.49-41.87v-6.68h5.43v6.68zm8.37 15.03l-4.41 13.85h8.67zm2.45-15.03v-6.68h5.43v6.68z"/>
        <path id="&lt;Compound Path&gt;" class="s0"
              d="m417.76 730.18c-5.29 0-9.31-1.23-12.74-5.03l4.41-4.82c2.21 2.41 5.19 3.21 8.42 3.21 4.02 0 6.17-1.66 6.17-4.7 0-1.34-0.34-2.46-1.08-3.21-0.68-0.7-1.47-1.07-3.08-1.34l-4.21-0.64c-2.99-0.48-5.19-1.5-6.76-3.15-1.66-1.82-2.49-4.28-2.49-7.49 0-6.79 4.6-11.55 12.14-11.55 4.79 0 8.27 1.28 11.26 4.44l-4.31 4.65c-2.2-2.3-4.85-2.62-7.15-2.62-3.62 0-5.38 2.19-5.38 4.81 0 0.97 0.29 1.98 1.02 2.73 0.69 0.69 1.82 1.28 3.24 1.5l4.11 0.64c3.18 0.48 5.19 1.44 6.66 2.94 1.86 1.92 2.69 4.71 2.69 8.07 0 7.38-5.63 11.56-12.92 11.56z"/>
        <path id="&lt;Compound Path&gt;" class="s0"
              d="m448.73 730.18c-3.82 0-6.95-1.51-9.4-4.18-3.52-3.85-3.42-8.61-3.42-15.19 0-6.57-0.1-11.33 3.42-15.18 2.45-2.68 5.58-4.17 9.4-4.17 6.51 0 11.61 4.06 12.83 12.03h-6.9c-0.69-3.05-2.45-5.4-5.88-5.4-1.86 0-3.37 0.75-4.35 1.98-1.33 1.6-1.72 3.42-1.72 10.74 0 7.33 0.39 9.15 1.72 10.75 0.98 1.23 2.49 1.98 4.35 1.98 3.43 0 5.19-2.35 5.88-5.4h6.9c-1.22 7.97-6.36 12.04-12.83 12.04z"/>
        <path id="&lt;Compound Path&gt;" class="s0" d="m486.03 729.85v-15.93h-11.8v15.93h-6.81v-38.07h6.81v15.56h11.8v-15.56h6.8v38.07z"/>
        <path id="&lt;Compound Path&gt;" class="s0" d="m514.26 698.41v31.44h-6.8v-31.44h-9.1v-6.63h25.01v6.63z"/>
        <g id="&lt;Group&gt;">
            <g id="&lt;Group&gt;">
                <g id="&lt;Group&gt;">
                    <path id="&lt;Compound Path&gt;" class="s0"
                          d="m118.94 775.8l4.21-0.78q0.34-0.04 0.46 0.3c0.46 1.33 1.57 2.37 3.4 2.37 1.99 0 3.22-1.37 3.22-3.26 0-2.25-1.42-3.55-3.64-3.55h-1.11c-0.23 0-0.38-0.14-0.38-0.37v-3.58c0-0.23 0.15-0.37 0.38-0.37h1.04c1.95 0 3.21-1.23 3.21-3.15 0-1.77-1.11-2.96-2.95-2.96-1.64 0-2.56 0.93-2.94 2.34q-0.11 0.32-0.46 0.25l-4.17-0.77q-0.35-0.07-0.3-0.41c0.61-3.33 3.55-5.77 8.14-5.77 5.09 0 8.03 2.92 8.03 6.95 0 2.15-1.03 4-2.9 5.18v0.07c1.56 0.74 3.4 2.78 3.4 6.11 0 4.58-3.6 7.65-8.49 7.65-4.44 0-7.72-2.14-8.45-5.77-0.04-0.22 0.08-0.41 0.3-0.48z"/>
                    <path id="&lt;Compound Path&gt;" class="s0"
                          d="m140.04 776.84c0-0.23 0.16-0.37 0.39-0.37h4.55c0.23 0 0.38 0.14 0.38 0.37v4.44c0 0.22-0.15 0.36-0.38 0.36h-4.55c-0.23 0-0.39-0.14-0.39-0.36z"/>
                    <path id="&lt;Compound Path&gt;" class="s0"
                          d="m149.25 773.73v-3.77c0-0.22 0.16-0.37 0.39-0.37h11.01c0.23 0 0.38 0.15 0.38 0.37v3.77c0 0.22-0.15 0.37-0.38 0.37h-11.01c-0.23 0-0.39-0.15-0.39-0.37z"/>
                    <path id="&lt;Compound Path&gt;" class="s0"
                          d="m171.88 762.34h-0.07l-4.13 2.74c-0.23 0.14-0.42 0.07-0.42-0.22v-4.59c0-0.22 0.07-0.37 0.27-0.52l4.35-3.03q0.29-0.22 0.69-0.22h4.29c0.23 0 0.38 0.15 0.38 0.37v24.41c0 0.22-0.15 0.36-0.38 0.36h-4.59c-0.23 0-0.39-0.14-0.39-0.36z"/>
                    <path id="&lt;Compound Path&gt;" class="s0"
                          d="m186.37 777.84c0-0.23 0.04-0.34 0.19-0.52l9.14-10.51c0.99-1.1 1.53-2.18 1.53-3.47 0-1.67-1.03-2.89-2.83-2.89-1.76 0-2.83 1.04-3.06 2.96q-0.01 0.35-0.42 0.3l-4.21-0.67c-0.23-0.03-0.34-0.22-0.3-0.44 0.26-3.48 3.17-6.51 8.18-6.51 4.97 0 7.99 3.11 7.99 7.17 0 2.41-0.99 4.29-2.64 6.11l-6.84 7.8v0.07h9.1c0.23 0 0.38 0.15 0.38 0.37v3.67c0 0.22-0.15 0.36-0.38 0.36h-15.45c-0.23 0-0.38-0.14-0.38-0.36z"/>
                    <path id="&lt;Compound Path&gt;" class="s0"
                          d="m207.43 776.84c0-0.23 0.15-0.37 0.38-0.37h4.55c0.23 0 0.38 0.14 0.38 0.37v4.44c0 0.22-0.15 0.36-0.38 0.36h-4.55c-0.23 0-0.38-0.14-0.38-0.36z"/>
                    <path id="&lt;Compound Path&gt;" class="s0"
                          d="m224.59 778.61c-0.16-0.15-0.23-0.41-0.04-0.63l2.91-3.21c0.15-0.19 0.38-0.19 0.57-0.04 1.72 1.33 4.05 2.59 6.81 2.59 2.71 0 4.24-1.22 4.24-3 0-1.48-0.92-2.4-4.01-2.81l-1.38-0.18c-5.28-0.7-8.22-3.11-8.22-7.55 0-4.62 3.59-7.69 9.21-7.69 3.45 0 6.66 1 8.84 2.63 0.23 0.14 0.27 0.29 0.07 0.55l-2.33 3.37q-0.24 0.27-0.53 0.11c-1.99-1.26-3.9-1.93-6.05-1.93-2.29 0-3.48 1.15-3.48 2.74 0 1.44 1.07 2.37 4.06 2.78l1.38 0.18c5.35 0.7 8.18 3.07 8.18 7.62 0 4.54-3.48 7.91-10.21 7.91-4.06 0-8-1.55-10.02-3.44z"/>
                    <path id="&lt;Compound Path&gt;" class="s0"
                          d="m248.59 756.87c0-0.22 0.15-0.37 0.38-0.37h16.68c0.23 0 0.38 0.15 0.38 0.37v3.95c0 0.23-0.15 0.37-0.38 0.37h-11.21q-0.23 0.01-0.23 0.23v4.99q0 0.22 0.23 0.22h9.33c0.23 0 0.38 0.15 0.38 0.37v3.92c0 0.22-0.15 0.37-0.38 0.37h-9.33q-0.23 0-0.23 0.22v5.22q0 0.22 0.23 0.22h11.21c0.23 0 0.38 0.15 0.38 0.37v3.96c0 0.22-0.15 0.36-0.38 0.36h-16.68c-0.23 0-0.38-0.14-0.38-0.36z"/>
                    <path id="&lt;Compound Path&gt;" fill-rule="evenodd" class="s0"
                          d="m270.57 781.64c-0.23 0-0.38-0.14-0.38-0.36v-24.41c0-0.22 0.15-0.37 0.38-0.37h10.09c5.66 0 9.07 3.29 9.07 8.1 0 4.73-3.45 8.06-9.07 8.06h-4.62q-0.23 0-0.23 0.22v8.4c0 0.22-0.16 0.36-0.39 0.36zm13.54-17.04c0-2.04-1.41-3.41-3.78-3.41h-4.29q-0.23 0.01-0.23 0.23v6.32q0 0.22 0.23 0.22h4.29c2.37 0 3.78-1.33 3.78-3.36z"/>
                    <path id="&lt;Compound Path&gt;" class="s0"
                          d="m299.05 781.64c-0.23 0-0.39-0.14-0.39-0.36v-19.72q0-0.22-0.23-0.22h-6.57c-0.23 0-0.39-0.15-0.39-0.37v-4.1c0-0.22 0.16-0.37 0.39-0.37h19.23c0.23 0 0.38 0.15 0.38 0.37v4.1c0 0.22-0.15 0.37-0.38 0.37h-6.58q-0.23 0-0.23 0.22v19.72c0 0.22-0.15 0.36-0.38 0.36z"/>
                    <path id="&lt;Compound Path&gt;" class="s0"
                          d="m314.6 756.87c0-0.22 0.15-0.37 0.38-0.37h16.67c0.23 0 0.39 0.15 0.39 0.37v3.95c0 0.23-0.16 0.37-0.39 0.37h-11.2q-0.23 0.01-0.23 0.23v4.99q0 0.22 0.23 0.22h9.33c0.23 0 0.38 0.15 0.38 0.37v3.92c0 0.22-0.15 0.37-0.38 0.37h-9.33q-0.23 0-0.23 0.22v5.22q0 0.22 0.23 0.22h11.2c0.23 0 0.39 0.15 0.39 0.37v3.96c0 0.22-0.16 0.36-0.39 0.36h-16.67c-0.23 0-0.38-0.14-0.38-0.36z"/>
                    <path id="&lt;Compound Path&gt;" class="s0"
                          d="m336.19 756.87c0-0.22 0.16-0.37 0.38-0.37h4.56q0.44-0.01 0.61 0.37l6.57 14.35h0.16l6.46-14.35q0.16-0.38 0.61-0.37h4.48c0.23 0 0.38 0.15 0.38 0.37v24.41c0 0.22-0.15 0.36-0.38 0.36h-4.32c-0.23 0-0.39-0.14-0.39-0.36v-14.17h-0.15l-4.82 10.62q-0.22 0.48-0.73 0.47h-2.63q-0.51 0.01-0.73-0.47l-4.82-10.62h-0.15v14.17c0 0.22-0.15 0.36-0.38 0.36h-4.33c-0.22 0-0.38-0.14-0.38-0.36z"/>
                    <path id="&lt;Compound Path&gt;" fill-rule="evenodd" class="s0"
                          d="m365.35 756.87c0-0.22 0.16-0.37 0.39-0.37h10.13c5.66 0 8.3 2.7 8.3 6.69 0 2.74-1.3 4.44-3.02 5.36v0.08c1.72 0.63 3.48 2.7 3.48 5.69 0 4.96-3.41 7.32-9.03 7.32h-9.86c-0.23 0-0.39-0.14-0.39-0.36zm9.83 9.91c2.14 0 3.4-1.11 3.4-2.96 0-1.85-1.26-2.92-3.4-2.92h-3.97q-0.23 0-0.23 0.22v5.43q0 0.23 0.23 0.23zm-3.98 10.46h4.28c2.29 0 3.52-1.18 3.52-3.14 0-1.93-1.23-3.15-3.52-3.15h-4.28q-0.23 0-0.23 0.23v5.84q0 0.22 0.23 0.22z"/>
                    <path id="&lt;Compound Path&gt;" class="s0"
                          d="m388.67 756.87c0-0.22 0.15-0.37 0.38-0.37h16.68c0.23 0 0.38 0.15 0.38 0.37v3.95c0 0.23-0.15 0.37-0.38 0.37h-11.21q-0.23 0.01-0.23 0.23v4.99q0 0.22 0.23 0.22h9.33c0.23 0 0.38 0.15 0.38 0.37v3.92c0 0.22-0.15 0.37-0.38 0.37h-9.33q-0.23 0-0.23 0.22v5.22q0 0.22 0.23 0.22h11.21c0.23 0 0.38 0.15 0.38 0.37v3.96c0 0.22-0.15 0.36-0.38 0.36h-16.68c-0.23 0-0.38-0.14-0.38-0.36z"/>
                    <path id="&lt;Compound Path&gt;" fill-rule="evenodd" class="s0"
                          d="m424.64 781.64c-0.34 0-0.46-0.11-0.57-0.36l-4.47-9.21h-3.48q-0.23 0-0.23 0.22v8.99c0 0.22-0.16 0.36-0.39 0.36h-4.85c-0.23 0-0.39-0.14-0.39-0.36v-24.41c0-0.22 0.16-0.37 0.39-0.37h10.36c5.32 0 8.83 3.21 8.83 7.8 0 3.22-1.75 5.77-4.62 6.99l5.12 9.91c0.12 0.22 0 0.44-0.27 0.44zm-0.42-17.34c0-1.89-1.38-3.11-3.52-3.11h-4.59q-0.22 0.01-0.23 0.23v5.8q0.01 0.22 0.23 0.22h4.59c2.14 0 3.52-1.22 3.52-3.14z"/>
                    <path id="&lt;Compound Path&gt;" class="s0"
                          d="m443.13 777.84c0-0.23 0.04-0.34 0.2-0.52l9.14-10.51c0.99-1.1 1.53-2.18 1.53-3.47 0-1.67-1.04-2.89-2.83-2.89-1.76 0-2.83 1.04-3.06 2.96q-0.01 0.35-0.42 0.3l-4.21-0.67c-0.23-0.03-0.35-0.22-0.31-0.44 0.27-3.48 3.18-6.51 8.19-6.51 4.97 0 7.99 3.11 7.99 7.17 0 2.41-0.99 4.29-2.64 6.11l-6.84 7.8v0.07h9.1c0.23 0 0.38 0.15 0.38 0.37v3.67c0 0.22-0.15 0.36-0.38 0.36h-15.45c-0.23 0-0.39-0.14-0.39-0.36z"/>
                    <path id="&lt;Compound Path&gt;" fill-rule="evenodd" class="s0"
                          d="m464.12 769.07c0-5.58 0.19-6.73 0.57-7.84 1.07-3.22 3.75-5.14 7.84-5.14 4.09 0 6.77 1.92 7.84 5.14 0.38 1.11 0.58 2.26 0.58 7.84 0 5.58-0.2 6.73-0.58 7.84-1.07 3.22-3.75 5.14-7.84 5.14-4.09 0-6.77-1.92-7.84-5.14-0.38-1.11-0.57-2.26-0.57-7.84zm8.41 8.62c1.34 0 2.26-0.56 2.64-1.7 0.23-0.67 0.31-1.41 0.31-6.92 0-5.51-0.08-6.25-0.31-6.91-0.38-1.15-1.3-1.71-2.64-1.71q-2.06-0.01-2.64 1.71c-0.23 0.66-0.3 1.4-0.3 6.91 0 5.51 0.07 6.25 0.3 6.92q0.58 1.71 2.64 1.7z"/>
                    <path id="&lt;Compound Path&gt;" class="s0"
                          d="m485.64 777.84c0-0.23 0.04-0.34 0.19-0.52l9.14-10.51c0.99-1.1 1.53-2.18 1.53-3.47 0-1.67-1.03-2.89-2.83-2.89-1.76 0-2.83 1.04-3.06 2.96q-0.01 0.35-0.42 0.3l-4.21-0.67c-0.23-0.03-0.34-0.22-0.3-0.44 0.26-3.48 3.17-6.51 8.18-6.51 4.97 0 7.99 3.11 7.99 7.17 0 2.41-0.99 4.29-2.64 6.11l-6.84 7.8v0.07h9.1c0.23 0 0.38 0.15 0.38 0.37v3.67c0 0.22-0.15 0.36-0.38 0.36h-15.45c-0.23 0-0.38-0.14-0.38-0.36z"/>
                    <path id="&lt;Compound Path&gt;" class="s0"
                          d="m517.75 761.12v-0.11h-5.47q-0.23 0-0.23 0.22v2.63c0 0.22-0.15 0.37-0.38 0.37h-4.24c-0.23 0-0.39-0.15-0.39-0.37v-6.99c0-0.22 0.16-0.37 0.39-0.37h15.56c0.23 0 0.38 0.15 0.38 0.37v3.84q-0.01 0.28-0.07 0.45l-8.26 20.15c-0.12 0.26-0.27 0.33-0.54 0.33h-4.78c-0.23 0-0.34-0.14-0.23-0.4z"/>
                </g>
            </g>
        </g>
    </g>
</svg>
